<svg width="100" height="100" viewBox="0 0 100 100" fill="none" xmlns="http://www.w3.org/2000/svg">
  <rect x="25" y="20" width="10" height="60" rx="2" fill="#2563EB"/>
  
  <path d="M35 20H55C66.0457 20 75 28.9543 75 40C75 51.0457 66.0457 60 55 60H35V20Z" fill="#CBD5E1"/>
  <path d="M35 50H55C66.0457 50 75 58.9543 75 70C75 81.0457 66.0457 90 55 90H35V50Z" fill="#CBD5E1"/>

  <path d="M35 28H50C56.6274 28 62 33.3726 62 40C62 46.6274 56.6274 52 50 52H35V28Z" fill="white"/>
  <path d="M35 58H50C56.6274 58 62 63.3726 62 70C62 76.6274 56.6274 82 50 82H35V58Z" fill="white"/>
</svg>